<svg width="60" height="45" viewBox="0 0 60 45" fill="none" xmlns="http://www.w3.org/2000/svg">
<path d="M48.6535 5.06562C49.4774 4.88389 50.2188 4.79303 50.8779 4.79303C51.537 4.79303 52.0837 4.80817 52.5181 4.83846V5.95153C53.5217 5.23977 54.5926 4.88389 55.731 4.88389C57.2289 4.88389 58.3149 5.31549 58.9889 6.17869C59.663 7.04189 60 8.48056 60 10.4947C60 11.5699 59.8427 12.5164 59.5282 13.3342C59.2136 14.1519 58.7867 14.788 58.2475 15.2423C57.2139 16.1509 55.9857 16.6052 54.5627 16.6052C53.9486 16.6052 53.3644 16.5447 52.8102 16.4235V18.3771C53.6939 18.6194 54.2631 18.8995 54.5178 19.2176L54.2931 20.9667H48.6535L48.4289 19.2176C48.6236 18.945 49.0355 18.6875 49.6646 18.4452V7.58707C49.1404 7.40535 48.7284 7.1479 48.4289 6.81474L48.6535 5.06562ZM54.338 14.2882C55.0869 14.2882 55.6786 13.9551 56.113 13.2887C56.5474 12.6073 56.7646 11.6759 56.7646 10.4947C56.7646 9.29833 56.6447 8.48056 56.4051 8.04139C56.1654 7.60222 55.731 7.38263 55.1019 7.38263C54.1433 7.38263 53.3794 7.60979 52.8102 8.0641V14.1065C53.2745 14.2277 53.7838 14.2882 54.338 14.2882Z" fill="white"/>
<path d="M37.628 6.74661C37.628 6.51945 37.6354 6.27715 37.6504 6.0197C39.0435 5.26251 40.5413 4.88391 42.1441 4.88391C43.7468 4.88391 44.8927 5.19436 45.5817 5.81526C46.2857 6.42101 46.6377 7.43565 46.6377 8.85918V13.6976C47.162 13.8036 47.5739 13.9324 47.8735 14.0838V16.0601C47.1096 16.4235 46.0161 16.6053 44.5931 16.6053C44.4433 16.2115 44.316 15.7345 44.2112 15.1742C43.5671 16.1282 42.3987 16.6053 40.7061 16.6053C39.7025 16.6053 38.8412 16.31 38.1223 15.7193C37.4183 15.1287 37.0663 14.3261 37.0663 13.3115C37.0663 12.2968 37.3958 11.5018 38.0549 10.9263C38.7289 10.3357 39.725 10.0404 41.0431 10.0404H43.4922V8.95004C43.4922 7.76882 42.8705 7.17821 41.6273 7.17821C41.163 7.17821 40.781 7.22364 40.4814 7.3145C40.4515 7.95054 40.3616 8.44272 40.2118 8.79103H38.0099C37.7553 8.26099 37.628 7.57952 37.628 6.74661ZM41.6722 14.2883C42.4362 14.2883 43.0428 14.0611 43.4922 13.6068V11.7441H41.9194C40.8409 11.7441 40.3017 12.1605 40.3017 12.9935C40.3017 13.372 40.414 13.6825 40.6387 13.9248C40.8784 14.1671 41.2229 14.2883 41.6722 14.2883Z" fill="white"/>
<path d="M31.7099 16.6053C29.9124 16.6053 28.5568 16.1207 27.6431 15.1515C26.7444 14.1822 26.295 12.7739 26.295 10.9263C26.295 9.80567 26.4523 8.84403 26.7668 8.04141C27.0814 7.22364 27.5083 6.59517 28.0475 6.156C29.0961 5.30794 30.3168 4.88391 31.7099 4.88391C33.1029 4.88391 34.1664 5.24736 34.9003 5.97427C35.6493 6.68603 36.0238 7.97326 36.0238 9.83596C36.0238 10.9263 35.492 11.4715 34.4285 11.4715H29.5529C29.6128 12.4256 29.8525 13.0995 30.2719 13.4932C30.7063 13.8869 31.3878 14.0838 32.3165 14.0838C32.8258 14.0838 33.3126 14.0232 33.7769 13.9021C34.2413 13.7809 34.5783 13.6598 34.788 13.5386L35.1026 13.3569L35.7766 15.1742C35.6867 15.2802 35.5519 15.4165 35.3722 15.5831C35.2074 15.7345 34.773 15.9465 34.069 16.2191C33.38 16.4765 32.5936 16.6053 31.7099 16.6053ZM33.1254 9.44979C33.1553 9.23777 33.1703 8.98033 33.1703 8.67745C33.1703 8.37457 33.0505 8.05655 32.8108 7.72339C32.5711 7.37508 32.1517 7.20092 31.5526 7.20092C30.9684 7.20092 30.519 7.38265 30.2045 7.7461C29.8899 8.10955 29.6802 8.72288 29.5754 9.58608L33.1254 9.44979Z" fill="white"/>
<path d="M13.1734 0.295306C14.0122 0.0984352 14.7911 0 15.5101 0C16.2291 0 16.8357 0.022716 17.33 0.0681479V5.7471C17.6895 5.5048 18.1688 5.30035 18.768 5.13377C19.3671 4.96719 19.8989 4.8839 20.3632 4.8839C21.8461 4.8839 22.8722 5.24735 23.4414 5.97426C24.0106 6.70116 24.2952 7.80666 24.2952 9.29076V13.9021C24.8793 14.1292 25.2912 14.3867 25.5309 14.6744L25.3062 16.4235H20.1385L19.9139 14.6744C20.1236 14.3867 20.5355 14.1292 21.1496 13.9021V9.40434C21.1496 8.58657 21.0148 8.04139 20.7452 7.7688C20.4905 7.48107 20.0187 7.3372 19.3297 7.3372C18.6407 7.3372 17.9741 7.57951 17.33 8.06411V13.9021C17.9142 14.1292 18.3261 14.3867 18.5658 14.6744L18.3411 16.4235H13.1734L12.9487 14.6744C13.1584 14.3867 13.5703 14.1292 14.1845 13.9021V2.81676C13.6602 2.63503 13.2483 2.37759 12.9487 2.04442L13.1734 0.295306Z" fill="white"/>
<path d="M8.89741 3.43009C8.44805 3.23322 7.774 3.13479 6.87527 3.13479C5.97654 3.13479 5.25007 3.52853 4.69585 4.31601C4.14164 5.10349 3.86453 6.48158 3.86453 8.45029C3.86453 10.419 4.12666 11.8198 4.65092 12.6527C5.19015 13.4705 5.98403 13.8794 7.03255 13.8794C8.63528 13.8794 10.0732 13.6371 11.3464 13.1525L12.1553 15.1742C10.5675 16.1282 8.70269 16.6053 6.56072 16.6053C4.41874 16.6053 2.86844 15.9919 1.90979 14.7653C0.966126 13.5386 0.494293 11.5321 0.494293 8.74559C0.494293 5.95912 1.07847 3.89955 2.24682 2.56689C3.43014 1.23423 5.0853 0.567902 7.21229 0.567902C8.91988 0.567902 10.5451 1.04493 12.0879 1.999C12.0879 2.08986 12.0879 2.26401 12.0879 2.52146C12.0879 2.77891 12.0355 3.21808 11.9306 3.83898C11.8258 4.45988 11.676 4.9672 11.4813 5.36094H9.34678C9.13707 4.95205 8.98728 4.30844 8.89741 3.43009Z" fill="white"/>
<path d="M41.0728 30.3603C41.0728 30.1332 41.0803 29.8909 41.0953 29.6334C42.4883 28.8762 43.9862 28.4976 45.5889 28.4976C47.1917 28.4976 48.3375 28.8081 49.0266 29.429C49.7306 30.0347 50.0826 31.0494 50.0826 32.4729V37.3113C50.6068 37.4174 51.0187 37.5461 51.3183 37.6975V39.6738C50.5544 40.0372 49.461 40.219 48.038 40.219C47.8882 39.8252 47.7609 39.3482 47.656 38.7879C47.0119 39.7419 45.8436 40.219 44.151 40.219C43.1474 40.219 42.2861 39.9237 41.5671 39.3331C40.8631 38.7424 40.5111 37.9398 40.5111 36.9252C40.5111 35.9105 40.8406 35.1155 41.4997 34.54C42.1738 33.9494 43.1698 33.6541 44.488 33.6541H46.937V32.5637C46.937 31.3825 46.3154 30.7919 45.0722 30.7919C44.6078 30.7919 44.2259 30.8373 43.9263 30.9282C43.8963 31.5643 43.8064 32.0564 43.6567 32.4047H41.4548C41.2001 31.8747 41.0728 31.1932 41.0728 30.3603ZM45.1171 37.902C45.881 37.902 46.4877 37.6748 46.937 37.2205V35.3578H45.3642C44.2858 35.3578 43.7465 35.7742 43.7465 36.6072C43.7465 36.9858 43.8589 37.2962 44.0836 37.5385C44.3232 37.7808 44.6677 37.902 45.1171 37.902Z" fill="white"/>
<path d="M34.3032 23.909C35.142 23.7121 35.9209 23.6137 36.6399 23.6137C37.3589 23.6137 37.9655 23.6364 38.4598 23.6819V37.5158C39.044 37.7429 39.4559 38.0004 39.6955 38.2881L39.4709 40.0372H34.3032L34.0785 38.2881C34.2882 38.0004 34.7001 37.7429 35.3142 37.5158V26.4305C34.79 26.2487 34.3781 25.9913 34.0785 25.6581L34.3032 23.909Z" fill="white"/>
<path d="M28.7047 30.542C27.7161 30.542 27.2218 30.8373 27.2218 31.428C27.2218 31.9883 27.7386 32.4047 28.7721 32.6773L30.5471 33.1544C32.3745 33.639 33.2882 34.7066 33.2882 36.3573C33.2882 37.4931 32.8913 38.4244 32.0974 39.1513C31.3185 39.8631 30.0678 40.219 28.3452 40.219C26.6377 40.219 25.3045 39.9767 24.3459 39.4921C24.3309 39.3255 24.3234 39.1589 24.3234 38.9923C24.3234 38.1594 24.4882 37.4098 24.8177 36.7435H26.6826C26.8773 37.1069 27.0046 37.4855 27.0646 37.8792C27.3641 37.9701 27.791 38.0155 28.3452 38.0155C29.6634 38.0155 30.3224 37.6369 30.3224 36.8797C30.3224 36.6374 30.2326 36.4406 30.0528 36.2891C29.8731 36.1226 29.5211 35.9635 28.9968 35.8121L27.2218 35.2896C26.3081 35.0322 25.5966 34.6536 25.0873 34.1539C24.5781 33.639 24.3234 32.8893 24.3234 31.905C24.3234 30.9055 24.7204 30.0877 25.5142 29.4517C26.3081 28.8156 27.439 28.4976 28.9069 28.4976C30.3898 28.4976 31.6406 28.7172 32.6591 29.1564C32.6741 29.3078 32.6816 29.4593 32.6816 29.6107C32.6816 30.3982 32.5168 31.1251 32.1873 31.7914H30.3449C30.1502 31.4431 30.0229 31.0796 29.963 30.7011C29.5435 30.595 29.1241 30.542 28.7047 30.542Z" fill="white"/>
<path d="M18.7424 40.219C16.9449 40.219 15.5893 39.7344 14.6756 38.7652C13.7769 37.796 13.3275 36.3876 13.3275 34.54C13.3275 33.4194 13.4848 32.4577 13.7993 31.6551C14.1139 30.8373 14.5408 30.2089 15.08 29.7697C16.1286 28.9216 17.3493 28.4976 18.7424 28.4976C20.1354 28.4976 21.1989 28.8611 21.9328 29.588C22.6818 30.2997 23.0563 31.587 23.0563 33.4497C23.0563 34.54 22.5245 35.0852 21.461 35.0852H16.5854C16.6453 36.0393 16.885 36.7132 17.3044 37.1069C17.7388 37.5006 18.4203 37.6975 19.349 37.6975C19.8583 37.6975 20.3451 37.6369 20.8094 37.5158C21.2738 37.3946 21.6108 37.2735 21.8205 37.1523L22.1351 36.9706L22.8091 38.7879C22.7192 38.8939 22.5844 39.0302 22.4047 39.1968C22.2399 39.3482 21.8055 39.5602 21.1015 39.8328C20.4125 40.0903 19.6261 40.219 18.7424 40.219ZM20.1579 33.0635C20.1878 32.8515 20.2028 32.594 20.2028 32.2912C20.2028 31.9883 20.083 31.6703 19.8433 31.3371C19.6036 30.9888 19.1842 30.8146 18.5851 30.8146C18.0009 30.8146 17.5515 30.9964 17.237 31.3598C16.9224 31.7233 16.7127 32.3366 16.6079 33.1998L20.1579 33.0635Z" fill="white"/>
<path d="M12.5822 24.386V27.6344L11.1667 27.8161C10.972 27.6647 10.7847 27.3467 10.605 26.8621H7.90882V37.4022C8.50797 37.6445 8.91989 37.8944 9.14457 38.1518L8.91989 40.0372H3.66232L3.43764 38.1518C3.63236 37.8944 4.04428 37.6445 4.67339 37.4022V26.8621H1.9772C1.79746 27.3467 1.61022 27.6647 1.4155 27.8161L0 27.6344V24.386H12.5822Z" fill="white"/>
</svg>
