<svg width="20" height="20" viewBox="0 0 20 20" fill="none" xmlns="http://www.w3.org/2000/svg">
<path fill-rule="evenodd" clip-rule="evenodd" d="M18.3334 9.99996C18.3334 14.6023 14.6024 18.3333 10 18.3333C5.39765 18.3333 1.66669 14.6023 1.66669 9.99996C1.66669 5.39759 5.39765 1.66663 10 1.66663C14.6024 1.66663 18.3334 5.39759 18.3334 9.99996ZM10.2986 7.81867C9.48809 8.1558 7.86816 8.85358 5.43882 9.912C5.04433 10.0689 4.83768 10.2223 4.81887 10.3724C4.78708 10.626 5.10467 10.7259 5.53714 10.8619C5.59597 10.8804 5.65692 10.8995 5.71941 10.9198C6.14489 11.0581 6.71725 11.22 7.01479 11.2264C7.28469 11.2322 7.58593 11.1209 7.91851 10.8926C10.1883 9.36039 11.36 8.58595 11.4336 8.56925C11.4854 8.55747 11.5574 8.54267 11.6061 8.58597C11.6548 8.62928 11.65 8.7113 11.6449 8.73331C11.6134 8.86743 10.3668 10.0264 9.72162 10.6262C9.5205 10.8132 9.37783 10.9458 9.34867 10.9761C9.28334 11.044 9.21676 11.1081 9.15277 11.1698C8.75748 11.5509 8.46105 11.8367 9.16918 12.3033C9.50947 12.5275 9.78177 12.713 10.0534 12.898C10.3501 13.1 10.646 13.3015 11.0289 13.5525C11.1264 13.6165 11.2196 13.6829 11.3103 13.7476C11.6556 13.9937 11.9658 14.2148 12.349 14.1796C12.5717 14.1591 12.8017 13.9497 12.9185 13.3252C13.1946 11.8494 13.7372 8.65167 13.8627 7.33398C13.8736 7.21853 13.8598 7.07078 13.8487 7.00592C13.8376 6.94106 13.8144 6.84865 13.7301 6.78024C13.6303 6.69923 13.4761 6.68214 13.4072 6.68336C13.0938 6.68888 12.6129 6.85609 10.2986 7.81867Z" fill="#495057"/>
</svg>
