<svg width="20" height="20" viewBox="0 0 20 20" fill="none" xmlns="http://www.w3.org/2000/svg">
<path d="M10.0315 2.74194C5.91468 2.74194 2.56435 5.96888 2.5629 9.93468C2.56194 11.2029 2.90645 12.4407 3.55968 13.5308L2.5 17.2581L6.45952 16.2579C7.56091 16.834 8.78557 17.1346 10.0285 17.1337H10.0315C14.1482 17.1337 17.4985 13.9063 17.5 9.94049C17.501 8.01952 16.7248 6.2113 15.3144 4.8521C13.9044 3.49243 12.0294 2.74243 10.0315 2.74194ZM10.0315 15.9187H10.029C8.91516 15.9187 7.82258 15.6303 6.86935 15.0855L6.64194 14.9558L4.29323 15.549L4.92032 13.3426L4.77274 13.1166C4.15286 12.1712 3.82287 11.0652 3.82339 9.93468C3.82484 6.63807 6.61 3.95694 10.0339 3.95694C11.6916 3.95743 13.2502 4.58017 14.4226 5.71001C15.595 6.83985 16.24 8.34227 16.239 9.94001C16.2376 13.2366 13.4534 15.9187 10.0315 15.9187ZM13.4365 11.4405C13.2497 11.351 12.3323 10.916 12.161 10.8555C11.9902 10.796 11.8658 10.765 11.7415 10.945C11.6176 11.125 11.2595 11.53 11.1511 11.6495C11.0418 11.7695 10.9329 11.784 10.7461 11.6945C10.5594 11.6045 9.9579 11.4148 9.24565 10.8023C8.69065 10.3261 8.31613 9.73775 8.20726 9.55727C8.09839 9.37775 8.19564 9.28049 8.28903 9.19098C8.37274 9.11114 8.47581 8.98146 8.56871 8.87646C8.66161 8.77146 8.69258 8.69646 8.75548 8.57646C8.81742 8.45694 8.78645 8.35146 8.73952 8.26194C8.69258 8.17146 8.32 7.28694 8.16371 6.92743C8.01274 6.5771 7.85887 6.62404 7.74419 6.61823C7.63532 6.61339 7.51145 6.61194 7.38613 6.61194C7.26274 6.61194 7.06 6.65694 6.88871 6.83694C6.7179 7.01694 6.23548 7.45146 6.23548 8.33598C6.23548 9.22098 6.90419 10.0755 6.99758 10.1955C7.09097 10.315 8.31371 12.131 10.1858 12.91C10.631 13.0944 10.9784 13.2052 11.2498 13.2884C11.6969 13.4253 12.1039 13.4055 12.4252 13.3595C12.7832 13.3077 13.5294 12.925 13.6842 12.5055C13.84 12.086 13.84 11.726 13.7935 11.651C13.7481 11.576 13.6232 11.531 13.4365 11.4405Z" fill="#495057"/>
</svg>
