<svg width="20" height="20" viewBox="0 0 20 20" fill="none" xmlns="http://www.w3.org/2000/svg">
<path fill-rule="evenodd" clip-rule="evenodd" d="M16.4934 4.5122C17.2101 4.70475 17.7771 5.27172 17.9696 5.98845C18.3227 7.29354 18.3334 10 18.3334 10C18.3334 10 18.3334 12.7172 17.9803 14.0116C17.7878 14.7283 17.2208 15.2952 16.5041 15.4878C15.2097 15.8408 10 15.8408 10 15.8408C10 15.8408 4.79035 15.8408 3.49596 15.4878C2.77922 15.2952 2.21226 14.7283 2.0197 14.0116C1.66669 12.7065 1.66669 10 1.66669 10C1.66669 10 1.66669 7.29354 2.00901 5.99915C2.20156 5.28241 2.76853 4.71545 3.48526 4.5229C4.77965 4.16987 9.98932 4.15918 9.98932 4.15918C9.98932 4.15918 15.199 4.15918 16.4934 4.5122ZM12.653 10L8.33121 12.5032V7.49679L12.653 10Z" fill="#495057"/>
</svg>
